<svg height="512pt" viewBox="0 0 512 512" width="512pt" xmlns="http://www.w3.org/2000/svg"><path d="m497 451h-436v-436c0-8.289062-6.710938-15-15-15s-15 6.710938-15 15v16h-16c-8.289062 0-15 6.710938-15 15s6.710938 15 15 15h16v30h-16c-8.289062 0-15 6.710938-15 15s6.710938 15 15 15h16v30h-16c-8.289062 0-15 6.710938-15 15s6.710938 15 15 15h16v30h-16c-8.289062 0-15 6.710938-15 15s6.710938 15 15 15h16v30h-16c-8.289062 0-15 6.710938-15 15s6.710938 15 15 15h16v30h-16c-8.289062 0-15 6.710938-15 15s6.710938 15 15 15h16v30h-16c-8.289062 0-15 6.710938-15 15s6.710938 15 15 15h16v30h-16c-8.289062 0-15 6.710938-15 15s6.710938 15 15 15h16v16c0 8.289062 6.710938 15 15 15s15-6.710938 15-15v-16h30v16c0 8.289062 6.710938 15 15 15s15-6.710938 15-15v-16h30v16c0 8.289062 6.710938 15 15 15s15-6.710938 15-15v-16h30v16c0 8.289062 6.710938 15 15 15s15-6.710938 15-15v-16h30v16c0 8.289062 6.710938 15 15 15s15-6.710938 15-15v-16h30v16c0 8.289062 6.710938 15 15 15s15-6.710938 15-15v-16h30v16c0 8.289062 6.710938 15 15 15s15-6.710938 15-15v-16h31v16c0 8.289062 6.710938 15 15 15s15-6.710938 15-15v-16h15c8.289062 0 15-6.710938 15-15s-6.710938-15-15-15zm0 0"/><path d="m497 91h-391c-8.289062 0-15 6.710938-15 15v60c0 8.289062 6.710938 15 15 15h391c8.289062 0 15-6.710938 15-15v-60c0-8.289062-6.710938-15-15-15zm0 0"/><path d="m106 301h300c8.289062 0 15-6.710938 15-15v-60c0-8.289062-6.710938-15-15-15h-300c-8.289062 0-15 6.710938-15 15v60c0 8.289062 6.710938 15 15 15zm0 0"/><path d="m106 421h210c8.289062 0 15-6.710938 15-15v-60c0-8.289062-6.710938-15-15-15h-210c-8.289062 0-15 6.710938-15 15v60c0 8.289062 6.710938 15 15 15zm0 0"/></svg>